<svg width="45" height="45" viewBox="0 0 45 45" fill="none" xmlns="http://www.w3.org/2000/svg">
    <g clip-path="url(#qodzhxljqa)" fill="#fff">
        <path d="M24.083 22.686a23.63 23.63 0 0 1-1.806-7.505l-1.072-2.193a107.05 107.05 0 0 0-2.1-3.813c-.715-1.25-1.595-2.586-2.425-3.796a17.664 17.664 0 0 1 3.034 3.388 26.779 26.779 0 0 1 2.373 3.682c.058.098.107.201.148.308.114-1.74.52-3.447 1.198-5.042a2.07 2.07 0 0 1 .146-.33c-2.456-2.722-5.603-4.66-9.074-5.589h-.148a.314.314 0 0 0 0 .178c-.608 3.704-.504 12.909 9.726 20.712zM44.687 21.525a1.997 1.997 0 0 0-.672-.777c-1.406-.944-3.193.7-3.193.723l-6.305 5.82h-.104c.221 1.03.08 2.107-.397 3.036a5.523 5.523 0 0 1-2.217 2.035 5.245 5.245 0 0 1-2.91.528h-8a.873.873 0 0 1-.677-.171.98.98 0 0 1-.197-1.326.903.903 0 0 1 .594-.377.829.829 0 0 1 .274 0h8.002c1.828 0 2.96-.484 3.445-1.448a2.785 2.785 0 0 0 0-2.345 2.388 2.388 0 0 0-.44-.678 3.569 3.569 0 0 0-2.46-.76h-9.948c-9.684 0-12.75 3.948-12.812 4.034L.03 36.714a.138.138 0 0 0 0 .174l6.68 7.897a.64.64 0 0 0 .463.22.71.71 0 0 0 .46-.177 13.871 13.871 0 0 1 6.618-3.747 20.912 20.912 0 0 1 5.019-.438h1.05c2.7-.058 5.378-.501 7.963-1.316a12.9 12.9 0 0 0 5.176-3.65l10.06-9.869c1.821-1.872 1.63-3.362 1.167-4.283z"/>
        <path d="M25.614 21.92v-1.36a27.27 27.27 0 0 1 1.785-7.825c.328-.839.7-1.658 1.113-2.455.21-.417.4-.812.63-1.207.23-.394.243-.372.357-.569l.356-.57a20.813 20.813 0 0 1 3.487-4.121 51.5 51.5 0 0 0-2.709 4.516c-.42.76-.797 1.557-1.176 2.346-.378.79-.693 1.6-1.03 2.411a57.978 57.978 0 0 0-1.617 4.998 49.118 49.118 0 0 0-.902 3.944l.52-.417 1.213-1.096C36.348 12.383 35.93 3.727 35.298.22a.304.304 0 0 0-.04-.22h-.212c-3.849 1.18-7.184 3.721-9.432 7.188-.183.306-.35.62-.502.944l-.126.286c-.127.26-.233.53-.315.81a18.233 18.233 0 0 0 .839 12.428l.104.263z"/>
    </g>
    <defs>
        <clipPath id="qodzhxljqa">
            <path fill="#fff" d="M0 0h45v45H0z"/>
        </clipPath>
    </defs>
</svg>
